<?xml version="1.0" standalone="no"?>
<svg version="1.1" id="Layer_1_1_" xmlns="http://www.w3.org/2000/svg" xmlns:xlink="http://www.w3.org/1999/xlink" x="0px" y="0px" viewBox="0 0 2000 2000" enable-background="new 0 0 2000 2000" xml:space="preserve">
<path id="color_x5F_7" fill="#EFF8F9" d="M920.8,1173.2l36.9,21.3V738.4l103.4,59.7v456.2L920.8,1173.2z M1553.1,1082.1L1218.6,889
	l0.5,385.9l-61.1,35.3L1553.1,1082.1z M923.5,660.7l-61.9,35.8l61.9,35.8l61.9-35.8L923.5,660.7z M670.2,475.2L608.3,511l61.9,35.8
	l61.9-35.8L670.2,475.2z M936.3,523.3l-25.2,14.5l25.2,14.5l25.2-14.5L936.3,523.3z M957.2,580.5l-61.9-35.8l0,0l-58.6-33.8
	l-61.9,35.8l61.9,35.8l0,0l58.6,33.8L957.2,580.5z M902.9,504l-25.2-14.5L852.5,504l25.2,14.5L902.9,504z M1069.5,616.3l-25.2,14.5
	l25.2,14.5l25.2-14.5L1069.5,616.3z M914,407.4L914,407.4l-58.6-33.8l-29.9,17.3c1.4,4.9,2.2,10.1,2.2,15.4c0,1.8-0.1,3.6-0.3,5.4
	h0.3l-0.3,0.5c-0.3,2.8-2,7.8-4.6,14.1l32.6,18.8l0,0L914,479l61.9-35.8L914,407.4z M819.9,432.9c-2,4.5-4.3,9.4-6.8,14.6
	l205.7,118.8l-230,132.8l110.9,64.1l16-9.2l-94.9-54.8l214.1-123.6l95,54.9l16-9.2L819.9,432.9z M724.5,444.2l-36.2,20.9l59.8,34.5
	C740.3,482,731.4,461.3,724.5,444.2z M801.2,471.5l11-6.3l-6-3.5C804.5,464.9,802.9,468.2,801.2,471.5z M744.7,727.7L446.9,899.6
	l394.2,227.6l0.6-343.7L744.7,727.7z M1002.6,1631.5l61.9,35.8l61.9-35.8l-61.9-35.8L1002.6,1631.5z M1255.8,1446l61.9,35.8
	l61.9-35.8l-61.9-35.8L1255.8,1446z M1026.5,1472.9l25.2,14.5l25.2-14.5l-25.2-14.5L1026.5,1472.9z M1092.7,1551.3l58.6-33.8l0,0
	l61.9-35.8l-61.9-35.8l-58.6,33.8l0,0l-61.9,35.8L1092.7,1551.3z M1110.3,1453.6l25.2-14.5l-25.2-14.5l-25.2,14.5L1110.3,1453.6z
	 M893.3,1565.8l25.2,14.5l25.2-14.5l-25.2-14.5L893.3,1565.8z M1160.6,1347.2l-0.3-0.5h0.3c-0.2-1.8-0.3-3.6-0.3-5.4
	c0-5.4,0.8-10.5,2.2-15.4l-29.9-17.3l-58.6,33.8l0,0l-61.9,35.8l61.9,35.8l58.6-33.8l0,0l32.6-18.8
	C1162.6,1355,1160.9,1350.1,1160.6,1347.2z M1174.8,1382.5c-2.5-5.2-4.8-10.1-6.8-14.6l-326,188.2l16,9.2l95-54.9l214.1,123.6
	l-94.9,54.8l16,9.2l110.9-64.1L969,1501.1L1174.8,1382.5z M1263.5,1379.2c-6.9,17-15.8,37.8-23.6,55.5l59.8-34.5L1263.5,1379.2z
	 M1181.8,1396.7l-6,3.5l11,6.3C1185.1,1403.2,1183.4,1399.9,1181.8,1396.7z"></path>
<path id="color_x5F_6" fill="#DCECF6" d="M1553.1,1082.1L950.2,734l29.8-17.2l656.6,379.1l-371.4,214.4
	c-10.3-15-27.8-24.9-47.6-24.9c-21.8,0-40.7,11.9-50.4,29.4l-8.6-5L1553.1,1082.1z M1134.6,1296.7L446.9,899.6l297.8-171.9l-53.8-31
	L363.4,885.8l741.4,428.1L1134.6,1296.7z"></path>
<path id="color_x5F_5" fill="#FFD2BB" stroke="#F8C09C" stroke-miterlimit="10" d="M1361.6,622.6c0.7,11,9.6,16.4,7.8,22
	c-1.8,5.6-9.3-4.1-9.3-4.1c1.1,8.4-5.8,0-5.8,0c-0.7,9.1-5.4-2.8-5.4-2.8c0.6,4.8-1,4.4-1,4.4c-6.3-4.9-7.5-27.1-7.7-39.4
	c5.1,1.1,11.8-1,14.5-1.9c1.4,5.7,3.7,5.6,4.6,7.8c1.2,2.8,15.1,11.3,15.1,11.3C1373.7,627.4,1361.6,622.6,1361.6,622.6z
	 M1440.2,659.2l0.2,7l0,0l0.3,11.3c-13.2,7.9-26.3,9.3-37.4,7.9c1.3,6.1,2,9.8,2,9.8s0.1,1,0.2,2.7c-1.9,5-5.7,11.4-13.1,16.8
	c-14.8,10.8-27.9,20-36.8,41.7s-31.7,37.2-38.2,39.5c-1.3,0.4-3,1.1-4.9,2c0.1,0,0.3,0,0.4,0c0,0,2.9,7.9,12.1,12.8
	c1.1,0.6,2.3,1.1,3.5,1.6h0.1c0.6,0.2,1.1,0.4,1.7,0.6c0.1,0,0.2,0.1,0.4,0.1c0.6,0.2,1.2,0.3,1.8,0.5c0.1,0,0.2,0,0.2,0.1
	c0.7,0.2,1.4,0.3,2.2,0.4c0.1,0,0.2,0,0.3,0c0.6,0.1,1.2,0.2,1.9,0.2c0.2,0,0.5,0,0.7,0.1c0.6,0,1.1,0.1,1.7,0.1c0.2,0,0.5,0,0.7,0
	c0.6,0,1.3,0,2,0c0.2-0.9,0.4-1.7,0.6-2.3c2.2-6.6,41.9-37.8,55.7-53.8c-1.1,14.1-0.9,29.3,0.5,33.4c2.5,7,14.9,55.2,13.3,64.3
	c0,0,2.7,14.2,1.1,18.2c-0.2,0.5-0.4,1.2-0.7,1.9c0.3-0.1,0.6-0.1,0.6-0.1c0,5.1,8.2,8.5,14,8.9c0.1,0,0.2,0,0.3,0
	c4.5,0.1,7.2-4.2,10.4-5.8c0,0,0,0,0.1,0c0.2-0.1,0.4-0.2,0.6-0.3c0.1,0,0.1,0,0.2-0.1c0.2-0.1,0.4-0.1,0.6-0.1c0.1,0,0.1,0,0.2,0
	s0.3,0,0.4,0c0-0.2,0-0.5,0-0.7c0.1-3.6-1-67.1-1-67.1l-1.6-77.9c0,0,0.1-6.7,0.3-15.5c3.4-2.7,8-7.8,13.9-17.6
	c5.4-8.8,9.9-26.2,13.5-45.5C1452.9,657.6,1440.2,659.2,1440.2,659.2z M1559.6,579c-5.9-2.5-24.6-22.3-24.6-22.3
	c15.8,2.9,17.5-6.9,14.2-6c-3.3,1-24-4.3-24-4.3s-1.8-2.4-4.3-6.2c-0.4,0.7-6.6,9.8-13.2,13c1.3,1.8,2.1,3.1,2.1,3.7
	c0,4.9,18.3,24.9,18.3,24.9s10.3,14.9,13.3,14.1c3-0.8-1.8-8.5-1.8-8.5s5.1,5.2,8.5,6s-4.3-9.9-4.3-9.9s9.1,5.2,12.2,5.3
	s-3.7-7.8-3.7-7.8C1560.8,583.7,1565.5,581.5,1559.6,579z M1458.7,309.2c0,0-6.2,21.3-44.7,6.7c0,0-6.5,15.7-2.9,30
	c0,0-7.5-5.2-6.5-9.9c0,0-3.8,3.3-8.3,0c-0.9-0.6-1.7-1.9-2.3-3.5c-2.1,0-4,1.2-4.3,5.8c-0.7,11.2,13.1,11.3,13.1,11.3
	s1.1,1.6,2.9,4.1c0.4,4.2,1,11.3,1.3,18.2l0.1-0.4c0,0,2.5,8,17.9,12.8c0,0,0.1,8.9,0.2,16c4.3-0.7,7.8-1.8,10.5-3.1l-0.9-12.7
	l5,2.1l0,0l-5-2.1l0.7-4.3c-2,1-3.8,2-5.2,2.8c-0.4-2.5-1-5.2-1.7-7.8c4.7,2.8,9.8,4.8,15.1,5.1c18.9,1.1,23.5-20.4,22.7-43.5
	C1465.2,329.5,1462.2,311.4,1458.7,309.2z"></path>
<path id="color_x5F_4" fill="#00CEC9" d="M796.3,1492l-661.7-382v-57.7l711.6,410.9L796.3,1492z M1330.1,1408.9l49.9,28.8
	l485.3-280.2v-57.7L1330.1,1408.9z M1013.9,1366.4L363.4,990.8v-105l741.4,428.1L1013.9,1366.4z M1265.2,1310.3
	c6.1,8.9,9.6,19.5,9.6,31c0,1.8-0.1,3.6-0.3,5.4h0.3l-0.3,0.6c-0.4,3.8-3.6,12.9-8.2,24.7l36.9,21.3l333.4-192.5v-105L1265.2,1310.3
	z"></path>
<path id="color_x5F_3" fill="#E84393" d="M1865.4,1099.9l-535.2,309l-26.9-15.5l333.4-192.5v-105L980.1,716.8l110.9-64l237,136.9
	c-4.6,3.3-8.5,5.5-10.6,6.3c-1.3,0.4-3,1.1-4.9,2c-11.1-1-19.6,17.4-19.5,23.5c0.2,6.2,6.1,12,13.5,21.8c7.4,9.9,5.4,37,27.1,42.5
	c21.7,5.6,24-0.2,28.4-11.7c2.6-6.8-3.3-11.4-8.3-18c-0.1-0.2-0.3-0.4-0.4-0.6c-0.1-0.1-0.2-0.3-0.3-0.4c-0.1-0.2-0.3-0.3-0.4-0.5
	s-0.2-0.3-0.3-0.5c-0.1-0.2-0.2-0.3-0.3-0.5c-0.1-0.2-0.2-0.4-0.4-0.6c-0.1-0.2-0.2-0.3-0.3-0.5c-0.2-0.3-0.4-0.6-0.6-0.9
	c-0.1-0.1-0.1-0.3-0.2-0.4c-0.1-0.3-0.3-0.5-0.4-0.8c-0.1-0.1-0.1-0.3-0.2-0.4c-0.1-0.2-0.2-0.5-0.3-0.7c-0.1-0.2-0.1-0.3-0.2-0.5
	s-0.1-0.4-0.2-0.6c-0.1-0.3-0.2-0.5-0.3-0.8c-0.1-0.1-0.1-0.3-0.1-0.4c-0.1-0.3-0.2-0.6-0.3-0.9c0-0.1,0-0.1,0-0.2
	c-0.2-0.8-0.4-1.7-0.5-2.5l0,0c0-0.1,0-0.2,0-0.3c0-0.3-0.1-0.6-0.1-1c0-0.2,0-0.4,0-0.5c0-0.3,0-0.7,0-1c0-0.2,0-0.3,0-0.5
	c0-0.5,0-1,0-1.6c0.1-1.8,0.2-3.4,0.1-4.9c0-0.5,0-1,0-1.5c0-1.3-0.1-2.5-0.2-3.6l0,0c0-0.4-0.1-0.8-0.1-1.1l0,0
	c0-0.4-0.1-0.7-0.1-1.1l0,0c0-0.1,0-0.2,0-0.3s0-0.2-0.1-0.3c-0.2-1.3-0.5-2.5-0.7-3.5c-0.1-0.5-0.2-0.9-0.4-1.3
	c-0.2-0.6-0.4-1.1-0.6-1.6c-0.1-0.2-0.1-0.3-0.2-0.5s-0.2-0.4-0.3-0.7c-0.1-0.2-0.2-0.3-0.2-0.5c-0.1-0.3-0.2-0.5-0.4-0.7
	c-0.2-0.3-0.3-0.5-0.5-0.8s-0.3-0.4-0.4-0.6c-0.2-0.3-0.4-0.6-0.6-0.7c-0.1-0.1-0.1-0.1-0.1-0.1l0,0c-0.2,0-0.4,0-0.6,0
	c0.2-0.9,0.4-1.7,0.6-2.3c0.6-1.7,3.6-5.1,8.1-9.4l59.2,34.2c1.7,8.7,2.7,16.1,2.2,19.1c0,0,2.7,14.2,1.1,18.2
	c-0.2,0.5-0.4,1.2-0.7,1.9c-2.7,0.8-13.7,5.8-6.3,33.9c0,0,1.5,2.3,13.1,6.4c11.7,4.1,27.9,23.7,34,23s24.8,1.5,30.4-10.3
	s-7.7-13.3-16.1-21.3c-0.2-0.2-0.4-0.4-0.6-0.6c-1.5-1.5-3.1-3.3-4.9-5.3c-0.7-0.8-1.3-1.6-2-2.4c0,0,0,0-0.1-0.1
	c-0.7-0.8-1.4-1.7-2.1-2.5c-0.5-0.6-1-1.2-1.5-1.8c-1.5-1.8-3-3.7-4.5-5.5c0,0,0,0,0-0.1c-0.3-0.4-0.7-0.8-1-1.2c0,0,0,0-0.1-0.1
	c-0.4-0.4-0.7-0.8-1-1.2l0,0l0,0c-2.9-3.4-5.5-6.1-7.5-7.5l0,0l0,0c-0.4-0.3-0.8-0.5-1.1-0.7h-0.1c-0.1-0.1-0.3-0.1-0.4-0.1
	c-0.2,0-0.3-0.1-0.4-0.1s-0.3,0-0.4,0c0-0.2,0-0.5,0-0.7c0-1.4-0.1-11.7-0.3-23.9L1865.4,1099.9z M1013.9,1366.4L363.4,990.8v-70.6
	l-228.7,132l711.6,410.9L1013.9,1366.4z M770.4,365.8c24,0,43.4,16.9,43.4,37.8s-19.4,37.8-43.4,37.8S727,424.5,727,403.6
	S746.4,365.8,770.4,365.8z M915.7,753.9L915.7,753.9l-7.4,4.3L853,790.1l-11.3-6.5l-0.6,343.7l116.6,67.3V738.4l-7.5-4.3
	L915.7,753.9z M1217.6,1300.8c-24,0-43.4,16.9-43.4,37.8s19.4,37.8,43.4,37.8s43.4-16.9,43.4-37.8S1241.5,1300.8,1217.6,1300.8z
	 M1135.2,1296.4l23.4,13.5l60.5-35l-0.5-385.9l-157.5-91v456.2l73.5,42.5L1135.2,1296.4z M1440.7,677.4l-0.3-11.3
	c-11,3.1-42.3,8.5-64.1-12.7c-1.5,8.7-3.2,15.6-5.1,19.5C1371.2,673,1405.2,698.6,1440.7,677.4z M1438.6,642.1l1.6,17.1
	c0,0,40.9-4.9,46.3-15.8l-1.7-16l0,0C1484.9,627.4,1465.2,644.7,1438.6,642.1z M1407.1,371.5l-1.8,10.3l7.5,18.5l12.2-16
	C1409.6,379.6,1407.1,371.5,1407.1,371.5z M1438.1,403.9c2.5-2.1,3.4-6,3.6-10.4c-3.3,2.8-10.3,6.9-22.4,7.4
	C1426.3,405.7,1434,407.3,1438.1,403.9z M1435.8,378.7l-0.9,5.9l11.8,4.9l-3.2-9.2C1440.9,380.2,1438.3,379.6,1435.8,378.7z"></path>
<path id="color_x5F_2" fill="#FBC02D" d="M1034.9,575.5L820.8,699.1l94.9,54.8l214.1-123.6L1034.9,575.5z M923.5,732.2l-61.9-35.8
	l61.9-35.8l61.9,35.8L923.5,732.2z M1044.3,630.8l25.2-14.5l25.2,14.5l-25.2,14.5L1044.3,630.8z M1018.9,566.3L813.2,447.5
	c-2.2,4.6-4.5,9.3-7,14.2l6,3.5l-11,6.3c-16.9,33-35.8,66.9-35.8,66.9s-7.8-17.1-17.3-38.7l-59.8-34.5l36.2-20.9
	c-1-2.5-2-4.9-2.9-7.2L481.2,575.9l371.9,214.2l46.7-26.9l-110.9-64.1L1018.9,566.3z M670.2,546.7l-61.9-35.8l61.9-35.8l61.9,35.8
	L670.2,546.7z M936.3,523.3l25.2,14.5l-25.2,14.5l-25.2-14.5L936.3,523.3z M877.7,489.5l25.2,14.5l-25.2,14.5L852.5,504L877.7,489.5
	z M836.7,510.9l58.6,33.8l0,0l61.9,35.8l-61.9,35.8l-58.6-33.8l0,0l-61.9-35.8L836.7,510.9z M899.7,763.1L899.7,763.1l16-9.2l0,0
	L899.7,763.1z M1266.3,1372.1c-0.9,2.3-1.9,4.7-2.9,7.2l36.2,20.9l-59.8,34.5c-9.5,21.7-17.3,38.7-17.3,38.7s-18.9-33.9-35.8-66.9
	l-11-6.3l6-3.5c-2.4-4.9-4.8-9.6-7-14.2L969,1501.3l230.1,132.8l-110.9,64.1l-16-9.2l94.9-54.8L953,1510.6l-95,54.9l-16-9.2
	l326-188.2c-1-2.3-2-4.6-2.8-6.6l-32.6,18.8l0,0L1074,1414l-61.9-35.8l61.9-35.8l0,0l58.6-33.8l29.9,17.3c1.1-3.9,2.7-7.6,4.6-11.1
	l-32-18.5l-371.6,214.5l371.3,214.2l371.9-214.2L1266.3,1372.1z M918.5,1580.4l-25.2-14.5l25.2-14.5l25.2,14.5L918.5,1580.4z
	 M1002.6,1631.5l61.9-35.8l61.9,35.8l-61.9,35.8L1002.6,1631.5z M1110.3,1424.5l25.2,14.5l-25.2,14.5l-25.2-14.5L1110.3,1424.5z
	 M1051.7,1458.4l25.2,14.5l-25.2,14.5l-25.2-14.5L1051.7,1458.4z M1151.3,1517.5L1151.3,1517.5l-58.6,33.8l-61.9-35.8l61.9-35.8l0,0
	l58.6-33.8l61.9,35.8L1151.3,1517.5z M1255.8,1446l61.9-35.8l61.9,35.8l-61.9,35.8L1255.8,1446z M1486.6,643.4
	c-0.8,1.5-2.2,2.9-4.2,4.2C1484.3,646.3,1485.8,644.9,1486.6,643.4l-1.7-16l0,0c0,0-19.7,17.3-46.3,14.7l1.6,17.1c0,0,2-0.2,5.1-0.7
	c-3.1,0.5-5.1,0.7-5.1,0.7l0.2,7.5v-0.6c-11,3.1-42.3,8.5-64.1-12.7c5.1-29.9,7.7-80.2,8.5-95.9c11.5,5.4,56.6,23.2,91.9-8.4
	L1486.6,643.4z M1483.9,929.3c-5.6,11.8-24.3,9.7-30.4,10.3c-6.1,0.7-22.3-18.9-34-23s-13.1-6.4-13.1-6.4c-8.4-31.7,6.9-34,6.9-34
	c0,5.1,8.2,8.5,14,8.9c0.1,0,0.2,0,0.3,0l0,0l19.6,20.9c0,0,13.7,8.4,18,6.5c2.1-0.9,2.4-3.2,2.1-5.2l0,0c0.2,0.2,0.4,0.4,0.6,0.6
	C1476.2,916,1489.5,917.4,1483.9,929.3z M1438.6,879c0.1,0,0.1,0,0.2-0.1C1438.7,878.9,1438.7,879,1438.6,879z M1440.8,878.7
	c0.1,0,0.3,0.1,0.4,0.1C1441.1,878.8,1441,878.8,1440.8,878.7z M1439.4,878.8c0.1,0,0.1,0,0.2,0
	C1439.5,878.7,1439.5,878.8,1439.4,878.8z M1442.5,879.6c1.9,1.4,4.6,4.2,7.5,7.5L1442.5,879.6z M1442.4,879.6
	c-0.4-0.3-0.8-0.5-1.1-0.7C1441.7,879.1,1442,879.3,1442.4,879.6z M1451,888.4c-0.4-0.4-0.7-0.8-1-1.2
	C1450.3,887.6,1450.6,888,1451,888.4z M1460,899.2L1460,899.2L1460,899.2z M1452.1,889.7c1.5,1.8,3,3.6,4.5,5.5
	C1455.1,893.3,1453.6,891.5,1452.1,889.7z M1461.1,900.5L1461.1,900.5L1461.1,900.5z M1451,888.5c0.3,0.4,0.7,0.8,1,1.2
	C1451.7,889.3,1451.4,888.9,1451,888.5z M1462.2,901.8L1462.2,901.8L1462.2,901.8z M1438,879.2C1438,879.2,1438,879.3,1438,879.2
	C1438,879.3,1438,879.2,1438,879.2z M1343.9,816c-0.1-0.2-0.3-0.4-0.4-0.6C1343.7,815.6,1343.8,815.8,1343.9,816z M1337.8,814.5
	c-0.2,0-0.5,0-0.7-0.1C1337.4,814.4,1337.6,814.4,1337.8,814.5z M1342.8,814.6l0.1,0.1C1342.9,814.7,1342.9,814.6,1342.8,814.6z
	 M1345.5,819.2c0.2,0.5,0.4,1,0.6,1.6C1345.9,820.2,1345.7,819.7,1345.5,819.2z M1339.6,814.6c0.2,0,0.5,0,0.7,0
	C1340,814.6,1339.8,814.6,1339.6,814.6z M1362,874.2c-4.4,11.5-6.7,17.2-28.4,11.7c-21.7-5.6-19.7-32.7-27.1-42.5
	c-7.4-9.9-13.3-15.6-13.5-21.8s8.5-25,19.9-23.5c0,0,2.9,7.9,12.1,12.8l0,0c-0.2,9.9,0.5,31.8,10.4,44.5c7.4,9.4,14,5.8,18.3,0.9
	l0,0C1358.8,862.8,1364.7,867.5,1362,874.2z M1345,818c0.1,0.2,0.2,0.4,0.3,0.7C1345.2,818.4,1345.1,818.2,1345,818z M1347.6,841.7
	c0-0.3,0-0.7,0-1C1347.6,841,1347.6,841.4,1347.6,841.7z M1347.1,825.6c-0.2-1.3-0.5-2.5-0.7-3.5
	C1346.7,823.2,1346.9,824.3,1347.1,825.6z M1347.5,840.2c0-0.5,0-1,0-1.6c0.1-1.8,0.2-3.4,0.1-4.9c0,1.5,0,3.2-0.1,4.9
	C1347.5,839.1,1347.5,839.7,1347.5,840.2z M1347.2,826c0.3,1.8,0.5,3.8,0.5,6.2C1347.6,829.8,1347.5,827.8,1347.2,826z
	 M1347.6,842.2c0,0.3,0.1,0.6,0.1,1C1347.7,842.9,1347.7,842.6,1347.6,842.2z M1344.4,816.8c0.1,0.2,0.2,0.5,0.4,0.7
	C1344.6,817.3,1344.5,817,1344.4,816.8z M1351.3,852.7c-0.2-0.3-0.4-0.6-0.6-0.9C1350.9,852.1,1351.1,852.4,1351.3,852.7z
	 M1351.9,853.8c-0.1-0.2-0.2-0.4-0.4-0.6C1351.7,853.4,1351.8,853.6,1351.9,853.8z M1350.1,850.6c0.1,0.3,0.3,0.5,0.4,0.8
	C1350.3,851.1,1350.2,850.9,1350.1,850.6z M1349.8,850.1c-0.1-0.2-0.2-0.5-0.3-0.7C1349.6,849.7,1349.7,849.9,1349.8,850.1z
	 M1353.3,855.7c-0.1-0.1-0.2-0.3-0.3-0.4C1353.1,855.4,1353.2,855.6,1353.3,855.7z M1352.6,854.8c-0.1-0.2-0.2-0.3-0.3-0.5
	C1352.4,854.4,1352.5,854.6,1352.6,854.8z M1349.3,848.9c-0.1-0.3-0.2-0.5-0.3-0.8C1349.1,848.4,1349.2,848.7,1349.3,848.9z
	 M1348.8,847.7c-0.1-0.3-0.2-0.6-0.3-0.9C1348.6,847.1,1348.7,847.4,1348.8,847.7z M1334.9,814.1c0.1,0,0.2,0,0.3,0
	C1335.1,814.1,1335,814.1,1334.9,814.1z M1328.5,812.4h0.1C1328.6,812.4,1328.6,812.4,1328.5,812.4z M1332.5,813.6
	c0.1,0,0.2,0,0.2,0.1C1332.7,813.7,1332.6,813.6,1332.5,813.6z M1330.7,813.2c-0.1,0-0.2-0.1-0.4-0.1
	C1330.5,813.1,1330.6,813.1,1330.7,813.2z M1348.4,846.4c-0.1-0.4-0.2-0.9-0.3-1.3C1348.2,845.5,1348.3,846,1348.4,846.4z
	 M1348,844.7c-0.1-0.3-0.1-0.7-0.2-1C1347.9,844.1,1347.9,844.4,1348,844.7z M1140.6,624.1l5.3-3l0,0L1140.6,624.1z M852.8,361.3
	l-32,18.5c1.9,3.5,3.5,7.2,4.6,11.1l29.9-17.3l58.6,33.8l0,0l61.9,35.8L914,479l-58.6-33.8l0,0l-32.6-18.8c-0.9,2.1-1.8,4.3-2.8,6.6
	l326,188.2l78.5-45.3L852.8,361.3z M1517.1,534.1c1.4-2.5,1.7-4.1,1.7-4.1s-27-43-34.6-51.4s-9.7-27.1-9.7-27.1
	c1.3-45.1-3.9-63.1-7.8-70.2c-0.3-2.9-0.8-5-1.6-6c-1.9-2.4-3.3-3.7-4.3-4.5c-3.5,6.3-9,10-17.2,9.5c-0.1,0-0.2,0-0.2,0l3.2,9.2
	l-5.1-2.1c0.5,6.6,0.1,13.6-3.5,16.6c-4.9,4.1-15.2,0.9-23.1-6.4l-2.2,2.8l-4.5-11.1c-1.3-2.3-2.4-4.8-3-7.4l0,0
	c0,0-9.7,13.6-26.4,20c-16.8,6.4-21.5,24.3-21.5,24.3l-28.7,87.6l2.5,78.2c0,0,1.6,1.3,4.3,2.4l1.3,6.8c6.1,4.6,19.2-0.8,19.2-0.8
	V593c0.6-0.3,1.3-0.7,1.9-1l5.4-48.5l-0.2-31c0,0,6.2-26.1,17.6-42.6c0,0,9.6,17.5,10.5,42.9c0.9,25.4-8.9,43.6-8.9,43.6
	s57.7,31.6,98.9-11.1c0,0-2.6-10.4-5.8-24.4l20.4,23l-0.2,0.1l0.9,0.7l3.7,4.2c0.3-0.1,0.6-0.3,0.8-0.4l6.2,5.2
	c7.1-3,13.9-13.3,13.9-13.3L1517.1,534.1z"></path>
<path id="color_x5F_1" fill="#0984E3" d="M1420.2,401.6c-0.1-0.1-0.3-0.2-0.4-0.3C1419.9,401.4,1420,401.5,1420.2,401.6z
	 M1425.2,400.4c0-7.1-0.2-16-0.2-16l-10,13.2c1.4,1.3,2.9,2.4,4.4,3.4C1421.4,400.9,1423.4,400.7,1425.2,400.4z M1425,404.1
	c0.1,0,0.1,0.1,0.2,0.1l0,0C1425.1,404.1,1425,404.1,1425,404.1z M1421,402.1c0.2,0.1,0.3,0.2,0.5,0.3
	C1421.3,402.3,1421.2,402.2,1421,402.1z M1423.6,403.5c0.2,0.1,0.3,0.2,0.5,0.2C1424,403.6,1423.8,403.6,1423.6,403.5z
	 M1422.8,403.1c-0.2-0.1-0.3-0.2-0.5-0.3C1422.5,402.9,1422.7,403,1422.8,403.1z M1441.7,393.6L1441.7,393.6v-6.1l-1.9-0.8l0,0
	l-5-2.1l0.9,12.7C1438.4,396,1440.3,394.7,1441.7,393.6z M827.4,411.7h0.3l-0.3,0.5c-2,18.5-62,126.2-62,126.2
	S715.2,428,713.5,412.3l-0.3-0.6h0.3c-0.2-1.8-0.3-3.6-0.3-5.4c0-30.9,25.6-55.9,57.3-55.9s57.3,25,57.3,55.9
	C827.7,408.1,827.6,409.9,827.4,411.7z M813.8,403.6c0-20.9-19.4-37.8-43.4-37.8S727,382.7,727,403.6s19.4,37.8,43.4,37.8
	S813.8,424.5,813.8,403.6z M1274.6,1346.8h0.3l-0.3,0.6c-1.7,15.7-51.9,126.1-51.9,126.1s-60-107.7-62-126.2l-0.3-0.5h0.3
	c-0.2-1.8-0.3-3.6-0.3-5.4c0-30.9,25.6-55.9,57.3-55.9s57.3,25,57.3,55.9C1274.9,1343.2,1274.8,1345,1274.6,1346.8z M1261,1338.6
	c0-20.9-19.4-37.8-43.4-37.8s-43.4,16.9-43.4,37.8s19.4,37.8,43.4,37.8S1261,1359.5,1261,1338.6z M1347.5,828.6
	c0,0.4,0.1,0.8,0.1,1.2c-0.9,0-1.6,0-1.6,0s-10.7-5.1-20.1-0.7c0.8,6,2.2,12.3,4.6,17.9c3.8-2.7,9.9-5.1,17.2-3.5
	c-0.2-1.5-0.3-3.2-0.2-4.9C1347.8,834.7,1347.8,831.4,1347.5,828.6z M1347.5,828.5c0-0.4-0.1-0.8-0.1-1.1
	C1347.4,827.8,1347.5,828.2,1347.5,828.5z M1325.5,825.6c4.4-2.5,10.8-4.3,18.4-1.6c1.2,0.4,2.2,0.8,3.1,1.2c0.1,0.3,0.1,0.7,0.2,1
	c-1.2-8.8-4.4-11.7-4.4-11.7c-7.6,0.2-13.4-1.4-17.8-3.8c-0.1,4.3,0,11,0.9,18.2C1325.8,827.9,1325.7,826.8,1325.5,825.6z
	 M1349.2,848.7c-4.1-1.2-11.1-2.3-17.3,1c-0.5-0.9-0.9-1.8-1.3-2.7c1.3,3,2.9,5.9,4.9,8.4c7.4,9.4,14,5.8,18.3,0.9
	C1352,854,1350.3,851.5,1349.2,848.7z M1347.2,826.3c0,0.3,0.1,0.7,0.1,1.1C1347.3,827,1347.3,826.6,1347.2,826.3z M1458.2,897
	L1458.2,897c-2.3-2.8-4.7-5.7-6.9-8.3c0.4,0.4,0.7,0.9,1.1,1.3c-3.2,0-7.6,1.2-10.2,7.6c-0.3,0.8-0.7,1.5-1,2.1l-4.3-4.6
	c2-2.3,7-7.5,11.6-9.3l1.5,1.5l-7.5-7.5c-0.8-0.6-1.5-0.9-2.1-1c-4.4-0.2-7.3,6.5-12.8,6.4l19.6,20.9l-0.7-0.7
	C1449.2,902.4,1454,897.9,1458.2,897z M1447.2,906.1C1447.2,906,1447.1,906,1447.2,906.1C1447.1,906,1447.2,906,1447.2,906.1z
	 M1451.1,888.5c-0.4-0.5-0.8-0.9-1.2-1.4C1450.3,887.6,1450.7,888.1,1451.1,888.5z M1447.4,906.2c0.4,0.3,1.4,0.8,2.7,1.5
	C1448.8,907,1447.9,906.5,1447.4,906.2z M1467.2,907.3c-1.5-1.5-3.1-3.3-4.9-5.3l0,0c-3-0.5-8.2-0.3-11.5,6.2
	c4.4,2.3,11.4,5.6,14.2,4.4C1467.2,911.6,1467.5,909.3,1467.2,907.3z M1460.3,899.6C1460.3,899.6,1460.3,899.5,1460.3,899.6
	C1460.3,899.5,1460.3,899.6,1460.3,899.6z M1450.9,908.1c-0.3-0.1-0.5-0.3-0.8-0.4C1450.4,907.9,1450.6,908,1450.9,908.1z
	 M1447.2,906.1c0,0,0.1,0.1,0.2,0.1C1447.3,906.1,1447.3,906.1,1447.2,906.1z M1465.8,290.8c4.6-6.8,0.6-15.9,0.6-15.9
	s-0.9,4.6-6.1,10.2s-38.9,1.4-49.8,4.7c-11,3.3-9.5,14-9.5,14c-12.3,8.6-9.3,28.9-4.7,32.2c4.6,3.3,8.3,0,8.3,0
	c-1,4.6,6.5,9.9,6.5,9.9c-3.6-14.3,2.9-30,2.9-30c38.5,14.5,44.7-6.7,44.7-6.7c4.4,2.7,8.1,30.9,8.1,30.9c12-17.6-3-37.9-3-37.9
	c6.2-2.8,7.9-11.5,7.9-11.5C1468,294,1465.8,290.8,1465.8,290.8z"></path>
</svg>